<?xml version="1.0" standalone="no"?><!DOCTYPE svg PUBLIC "-//W3C//DTD SVG 1.1//EN" "http://www.w3.org/Graphics/SVG/1.1/DTD/svg11.dtd"><svg t="1719060700258" class="icon" viewBox="0 0 1024 1024" version="1.1" xmlns="http://www.w3.org/2000/svg" p-id="25275" xmlns:xlink="http://www.w3.org/1999/xlink" width="200" height="200"><path d="M1024 512c0 282.8-229.2 512-512 512S0 794.8 0 512 229.2 0 512 0s512 229.2 512 512" fill="#1296db" p-id="25276" data-spm-anchor-id="a313x.search_index.0.i28.de413a81BcN41F" class=""></path><path d="M860.72 782.96H163.28c-8.48 0-16.24-4.48-20.64-11.68-4.32-7.28-4.56-16.24-0.48-23.68l300.8-557.92c3.92-7.28 11.36-12.08 19.68-12.56 8.32-0.48 16.24 3.28 21.04 10.08l396.64 557.92c5.2 7.36 5.92 16.96 1.76 24.88-4.16 8-12.4 12.96-21.36 12.96z m-657.2-48h610.72L466.88 246.4 203.52 734.96z" fill="#e6e6e6" p-id="25277" data-spm-anchor-id="a313x.search_index.0.i29.de413a81BcN41F" class="selected"></path><path d="M560.96 424.24c-41.92 0-90.96-9.12-133.44-17.04-25.52-4.72-57.36-10.72-65.92-9.44l-6.96-47.52c15.6-2.32 39.92 2 81.6 9.76 54.48 10.16 136.8 25.44 167.76 9.36l22.08 42.64c-17.12 8.88-39.84 12.24-65.12 12.24zM604.88 555.28c-60.16 0-131.52-13.28-193.36-24.8-42.16-7.84-85.84-16-100.08-13.92l-6.96-47.52c21.12-3.04 56 3.04 115.84 14.16 81.2 15.12 203.84 37.92 252.64 12.64l22.08 42.64c-23.44 12.24-54.88 16.8-90.16 16.8zM653.68 688c-83.52 0-183.44-18.64-269.92-34.72-62.8-11.68-122.08-22.72-143.68-19.52l-6.96-47.52c29.52-4.32 84 5.84 159.44 19.84 122.16 22.72 289.52 53.84 360.96 16.88l22.08 42.64c-31.44 16.32-73.92 22.4-121.92 22.4z" fill="#e6e6e6" p-id="25278" data-spm-anchor-id="a313x.search_index.0.i30.de413a81BcN41F" class="selected"></path></svg>