<?xml version="1.0" standalone="no"?><!DOCTYPE svg PUBLIC "-//W3C//DTD SVG 1.1//EN" "http://www.w3.org/Graphics/SVG/1.1/DTD/svg11.dtd"><svg t="1719068300941" class="icon" viewBox="0 0 1024 1024" version="1.1" xmlns="http://www.w3.org/2000/svg" p-id="7749" xmlns:xlink="http://www.w3.org/1999/xlink" width="200" height="200"><path d="M0 170.24A170.197333 170.197333 0 0 1 170.24 0h683.52A170.197333 170.197333 0 0 1 1024 170.24v683.52A170.197333 170.197333 0 0 1 853.76 1024H170.24A170.197333 170.197333 0 0 1 0 853.76V170.24z m523.093333-61.866667l-67.413333 11.946667c10.24 19.626667 20.48 40.96 29.013333 64.853333h-349.866666v56.32h753.493333V185.173333H550.4c-8.533333-28.16-17.92-53.76-27.306667-76.8z m228.693334 785.066667c62.293333 0 93.866667-27.306667 93.866666-81.066667v-298.666666H178.346667V896h58.88v-328.533333h549.546666v232.106666c0 27.306667-17.92 40.96-52.906666 40.96l-68.266667-2.56 14.506667 55.466667h71.68zM273.92 296.96v165.546667H750.933333V296.96H273.92z m70.826667 325.12v170.666667h335.36v-170.666667H344.746667z m346.453333-207.36H333.653333V344.746667h357.546667v69.973333z m-65.706667 331.946667H400.213333v-78.506667h225.28v78.506667z" fill="#199bff" p-id="7750" data-spm-anchor-id="a313x.search_index.0.i3.21d03a81dg79Ic" class="selected"></path></svg>